/* XPM */
static char *_a75077adc0e457a850f44f597310f47yEsFYYmOwSuX1yk0[] = {
/* columns rows colors chars-per-pixel */
"128 128 15 1 ",
"  c black",
". c #F1C40F",
"X c #F3C60E",
"o c #040404",
"O c #D4AD16",
"+ c #211906",
"@ c #241C08",
"# c #D9B118",
"$ c #1C1506",
"% c #CEA917",
"& c #EFC111",
"* c #B99B1D",
"= c #3C2D0A",
"- c #40320B",
"; c #43330E",
/* pixels */
"                                                   o                               oo                                           ",
"                                                   o                              ooo                                           ",
"                                                   o                               oo                                           ",
"                                                   oo                             ooo                                           ",
"                                                   oo                              oo                                           ",
"                                                    o                              oo                                           ",
"                                                                                   oo                                           ",
"                                                  oo@@@@@@@@@@@@@@@@@@@@@@@@@@@@@@@@o                                           ",
"                                   oo              +*##############################*+                                           ",
"                                  ooo              @OX.X.X.X.X.X.X.X.X.X.X.X.X.X.XXO+                                           ",
"                                   ooo             @OX............................XO+                                           ",
"                                  ooo              @OX.............................O+                                           ",
"                                   ooo             @OX............................XO+                                           ",
"                                  ooo              +OX.............................O+                                           ",
"                                   ooo             +OX............................XO+                                           ",
"                            ooooooo$@$$$$$$$$$$$$$$=OX............................XO=$$$$$$$$$$$$$$$oooooooo                    ",
"                            ooooooo@*%%%%%%%%%%%%%%O&..............................&O%%%%%%%%%%%%%%*@ooooooo                    ",
"                            ooooooo+OXXXXXXXXXXXXXXX................................XXXXXXXXXXXXXXX#@ ooooo                     ",
"                                   +OX............................................................X#@                           ",
"                                   +OX.............................................................#@                           ",
"                                   +OX.............................................................#@                           ",
"                                   +OX............................................................X#@                           ",
"                                   +OX............................................................X#+                           ",
"                    oooooooo+@++@++-O.............................................................X#-+@+++@+oooooooo            ",
"                    ooooooo@*OOOOOOO&...............................................................#OOOOOO*+oooooooo           ",
"                    ooooooo@#XXXXXXX.................................................................XXXXXXO$  ooooo            ",
"                           @#X............................................................................XO+       o           ",
"                          o@#X.............................................................................O+       o           ",
"                           @#X............................................................................XO$      oo           ",
"                           @#X.............................................................................O+      oo           ",
"                           @#X..............................XXXXXXXX......................................XO$       o           ",
"            oooooooo+@@@@@@;#..............................&O%%%%%%O&......................................#=@@@@@@@oooooooo    ",
"           oooooooo$*OOOOOO#&..............................#=$$$$+$=#......................................&#OOOOOO*@ooooo oo   ",
"           o       $OXXXXXX...............................X#+      @OX.......................................XXXXXXO@     ooo   ",
"           o       $OX....................................X#+      @OX............................................XO@      oo   ",
"           o       $OX.....................................#+      @OX............................................XO@     ooo   ",
"           o       $OX....................................X#+      @#X............................................XO@      oo   ",
"           o       $OX.....................................#@      +#.............................................XO@     ooo   ",
"           o       $OX....................................XO+      +OX..............................XXXXXXXXXXXXXXX#@      oo   ",
"           o       $OX....................................X#=$$$$$$=#X.............................&#OOOOOOOOOOOOO#*+      oo   ",
"           o       $OX....................................X&OOOOOOOO&..............................#-+++++++++++++++o           ",
"           o       $OX......................................XXXXXXXX..............................X#+               o           ",
"           o       $OX............................................................................X#@               o           ",
"           o       $OX.............................................................................#@               o           ",
"           o       $OX............................................................................X#@              oo           ",
"                   $OX.............................................................................#@              oo           ",
"                   $OX......................................................XXXXXXXXXXXXXXXXXXXXXXX#@              oo           ",
"           o+@@@@@@=OX.....................................................&O%%%%%%%%%%%%%%%%%%%%%%*+              oo           ",
"   oo      @*###O###&.....................................................XO=$$$$$$$$$$$$$$$$$$$$$$$o                           ",
"   oo      @OX..XX........................................................XO+   o o o o o o o o o o                             ",
"   oo      @OX............................................................XO+                                                   ",
"   oo      @OX............................................................XO+                                                   ",
"   oo      @OX............................................................XO+                                                   ",
"   oo      @OX............................................................XO+                                                   ",
"   oo      @OX.......................................XXXXXXXXXXXXXXXXXXXXXXO@                                                   ",
"   oo      @OX.....................................&OOOOOOOOOOOOOOOOOOOOOOO*+                                                   ",
"   oo      @OX....................................XO=++++++++++++++++++++++$o                                                   ",
"   oo      @OX....................................X%+                                                                           ",
"   oo      @OX....................................X%+                                                                           ",
"   oo      @OX....................................X%+                                                                           ",
"   oo      @OX....................................X%+                                                                           ",
"   oo      @OX....................................X%+                       o                                                   ",
"   oo      @OX....................................X%$                       o                                                   ",
"   oo      @OX....................................XO=++++++++++++++$o       o                                                   ",
"   oo      @OX.....................................&O%%%%%%%%%%%%OO*$      oo                                                   ",
"   oo      @OX......................................XXXXXXXXXXXXXXX%$      oo                                                   ",
"   oo      @OX....................................................X%$      oo                                                   ",
"   oo      @OX....................................................X%$       o                                                   ",
"   oo      @OX....................................................X%$       o                                                   ",
"   oo      @OX....................................................X%$                                                           ",
"   oo      @OX....................................................X%$                                                           ",
"   oo      @OX....................................................XO=+++++++o ooooooooooooo  oooooo                             ",
"   oo      @OX.....................................................&O%OOOOO*+ooooooooooo       ooooo                            ",
"   oo      @OX......................................................XX.X.XXO@                                                   ",
"   oo      @OX............................................................XO+                                                   ",
"   oo      @OX............................................................XO+                                                   ",
"   oo      @OX............................................................XO+                                                   ",
"   oo      @OX............................................................XO+                                                   ",
"   oo      @OX.XXXXX......................................................XO+                                                   ",
"   oo      @*#######&.....................................................XO=$$$$$$$$$$$$$$$$$$$$$$$o                           ",
"           o++++@@+=OX.....................................................&O%%%%%%%%%%%%%%%%%%%%%O*+                           ",
"           o       $OX......................................................XXXXXXXXXXXXXXXXXXXXXXX#@                           ",
"                   $OX............................................................................X#@              oo           ",
"                   $OX.............................................................................#@              oo           ",
"           o       $OX............................................................................X#@              oo           ",
"           o       $OX.............................................................................#@              oo           ",
"           o       $OX............................................................................X#@              oo           ",
"           o       $OX............................................................................X#;+@@@@@@@@@@@@@@o           ",
"           o       $OX..............................................................................#OOOOOOOOOOOOO#*+      oo   ",
"           o       $OX..............................................................................XXXXXXXXXXXXXXX#@      oo   ",
"           o       $OX............................................................................................XO@      oo   ",
"           o       $OX............................................................................................XO@     ooo   ",
"           o       $OX............................................................................................XO@      oo   ",
"                   $OX............................................................................................XO@     ooo   ",
"                   $OXXXXXX.................................................................................XX.XXXXO@      oo   ",
"                   $*OOOOOO#&..............................................................................&OOOOOOO*@      oo   ",
"                   o++++@++;#.............................................................................X#=+++++++o           ",
"                           @#X............................................................................X%$       o           ",
"                           @#X............................................................................XO$                   ",
"                           @#X.............................................................................O+                   ",
"                           @#X............................................................................XO+                   ",
"                          o@#X.............................................................................O+       o           ",
"                           @#XXXXXX.................................................................XXXXXXXO+       o           ",
"                    ooooooo@*OOOOOOO&..............................................................&#OOOOOO*+ooooooo            ",
"                    oooooooo@@+++@+-OX............................................................X#-+@+++@+oooooooo            ",
"                          o        +OX.............................................................#+                           ",
"                                   +OX............................................................X#@                           ",
"                                   +OX............................................................X#@                           ",
"                                   +OX.............................................................#@                           ",
"                                   +OX............................................................X#@                           ",
"                                   +OXXXXXXXXXXXXXXX................................XXXXXXXXXXXXXXX#@                           ",
"                            ooooooo+*%%%%%%%%%%%%%%%&..............................&%%%%%%%%%%%%%%%*@ooooooo                    ",
"                            oooooooo@$$$$$$$$$$$$$$=#X............................XO=$$$$$$$$$$$$$$$oooooooo                    ",
"                                  ooo              +OX............................XO+                o o                        ",
"                                   ooo             +OX............................XO+                                           ",
"                                  ooo              +OX............................XO+                                           ",
"                                   ooo             @OX............................XO+                                           ",
"                                  ooo              @OX.............................O+                                           ",
"                                   ooo             @OXXXXXXXXXXXXXXXXXXXXXXXXXXXXXXO+                                           ",
"                                  ooo              +*##############################*+                                           ",
"                                   oo              o@@@@@@@@@@@@@@@@@@@@@@@@@@@@@@@@o                                           ",
"                                                   o                              ooo                                           ",
"                                                   oo                              oo                                           ",
"                                                   o                               oo                                           ",
"                                                                                   oo                                           ",
"                                                                                   oo                                           ",
"                                                                                   oo                                           ",
"                                                                                   oo                                           "
};
