/* XPM */
static char *_b9467124a4d4d8d8984ce72910358baVw5cOSnlCj61fH3I[] = {
/* columns rows colors chars-per-pixel */
"128 128 14 1 ",
"  c black",
". c gray2",
"X c #151108",
"o c #191408",
"O c #2D220A",
"+ c #31260B",
"@ c #33270D",
"# c #AA8B17",
"$ c #C29A14",
"% c #C99F13",
"& c #CFA315",
"* c #EAB611",
"= c #ECBA10",
"- c #EFBC10",
/* pixels */
"                                                                                                                                ",
"                                                                                                                                ",
"                                                                                                                                ",
"                                ........                                                ........                                ",
"                               .........                                                ........                                ",
"                               . . . .                                                     . .                                  ",
"                               ..                                                                                               ",
"                               ..                                                                                               ",
"                               ..                                                                                               ",
"                               ..                                                                                               ",
"                               ..                                                                                               ",
"                        . ......oooooooo........                                  ......oooooooo..   ..                         ",
"                       ...  .. o#%%%%%&#o   ....                                  .....o#&%%%%%#o      ..                       ",
"                       ...     o%------&o                                              o&------%o      ..                       ",
"                       ...     o%-====-%o                                              o%-====-%o      ..                       ",
"                       ...     o%-====-%o                                              o%-====-%o      ..                       ",
"                       ...     o%-====-%o                                              o%-====-%o      ..                       ",
"                       ..      o%-====-%o                                              o%-=====%o      ..                       ",
"                       ..      o%-====-%o                                              o%-====-%o      ..                       ",
"                       .oXooXoXO&=====-%o                                              o%-====-%OXXooooo.                       ",
"               ..      o#%%%%%%&*=====-%o                                              o%-=====*&$%%%%%#o      ..               ",
"               ...     o%--=-=-=======-%o                                              o%-======---=-=-%o      ..               ",
"               ...     o%-============-%o                                              o%-============-%o      ..               ",
"               ...     o%-============-%o                                              o%-============-%o      ..               ",
"               ...     o%-============-%o                                              o%-============-%o      ...              ",
"               ...     o%-============-%o                                              o%-============-%o      ..               ",
"               ..      o%-============-%o                                              o%-============-%o      ...              ",
"               .ooooooo+&=============-&+ooooooo.                              .ooooooo@&-============-&+ooooooo.               ",
"               X#&&&&&&&===============*&&&&&&&#X                       .      X#&&&&&&&===============*&&&&&&&#X               ",
"               X$--==---=================--=-=-$X.                     ..      X%--=-=--================-=--=--$X               ",
"               X$-============================-$X                      ..      X$-============================-$X               ",
"               X$-============================-$X.                     ..      X$-============================-$X               ",
"               X$-============================-$X                      ..      X$-============================-$X               ",
"               X$-============================-$X.                     .       X$-============================-$X               ",
"               X$-============================-$X                      .       X$-============================-$X               ",
"               X$-============================-$X.                             X$-============================-$X               ",
"               X$-============================-$X                              X$-============================-$X               ",
"               X$-============================-$X.                     .       X$-============================-$X               ",
"               X$-============================-$X                      .       X$-============================-$X               ",
"               X$-============================-$X.                     .       X$-============================-$X               ",
"               X$-============================-$X                      ..      X$-============================-$X               ",
"               X$-============================-$X.                     ..      X$-============================-$X               ",
"               X$-============================-$X                      ..      X$-============================-$X               ",
"........oooooooO%-============================-$X.                     ..      X$-============================-$Oooooooo........",
".......o#%%%%%%%*=============================-$X                      ..      X$-=============================*%%%%%%%#o.......",
" . .   o&--=-=--==============================-$X.                     ..      X$-==============================-----=-&o.      ",
"       o&-====================================-$X                      ..      X$-====================================-&o       ",
"       o&=====================================-$X.                     ..      X$-====================================-&o       ",
"       o&-====================================-$X                      ..      X$-====================================-&o       ",
"       o&=====================================-$X                      ..      X$-====================================-&o       ",
"       o&-====================================-$X                       .      X$-====================================-&o       ",
"       o&=====================================-%Oooooooo.    ........  .oooooooO%-====================================-&o       ",
"       o&-=====================================*%%%%%%%#X       ...    o#%%%%%%%*=====================================-&o       ",
"       o&=======================================-------%o              o%-------======================================-&o       ",
"       o&-============================================-%o              o%-============================================-&o       ",
"       o&=============================================-%o              o%=============================================-&o       ",
"       o&-============================================-%o              o%-============================================-&o       ",
"       o&=============================================-%o              o%=============================================-&o       ",
"       o&-=======================----=--==============-%o              o$-============================================-&o       ",
"       o&======================*&%%%&&%&*=============-%o      .XXXXXXXO%-============================================-&o       ",
"       o&-====================-%OooooooO%-============-%o      X#$$$$$$%*=============================================-&o       ",
"       o&=====================-$X      X%-============-%o      o%-------==============================================-&o       ",
"       o&-====================-$o      X%-============-%o      o%-====================================================-&o       ",
"       o&=====================-$X      X%-============-%o      o$-====================================================-&o       ",
"       o&-====================-$X      X%-============-%o      o$-====================================================-&o       ",
"       o&=====================-$X      X%-============-%o      o$-====================================================-&o       ",
"       o&-====================-$X      X%-============-%o      o$-====================================================-&o       ",
"       o&=====================-%OooooooO%-============-%o      o$-====================================================-&o       ",
"       o&-=====================*&&&&&&%&*=============-%o      o$-====================================================-&o       ",
"       o&========================--=-=---=============-%o      o$-====================================================-&o       ",
"       o&-============================================-%o      o$-====================================================-&o       ",
"       o&=============================================-%o      o$-====================================================-&o       ",
"       o&-============================================-%o      o$-====================================================-&o       ",
"       o&=============================================-%o      o$-====================================================-&o       ",
"       o&-------======================================-%o      o$-==============================================-------&o       ",
"   ... o#%%%%%%%*======================================%OoooooXO%-=============================================*&%%%%%%#o .     ",
".....  .oooooooO%-=====================================*%$$$$$$%*=============================================-$Oooooooo....    ",
"       .       X$-======================================--------==============================================-$X               ",
"               X$-============================================================================================-$X               ",
"               X$-============================================================================================-$X               ",
"               X$-============================================================================================-$X               ",
"               X$-============================================================================================-$X               ",
"               X$-============================================================================================-$X               ",
"               X$-============================================================================================-$X               ",
"               X$-============================================================================================-$X               ",
"               X$-============================================================================================-$X               ",
"               X$-============================================================================================-$X               ",
"               X$-============================================================================================-$X               ",
"               X$-============================================================================================-$X               ",
"               X$-============================================================================================-$X               ",
"          . . .X$------=================================================================================-------$X . . .         ",
"        .......o#%%%%%%%*==============================================================================*%%%%%%%#o........       ",
"        .......Xooooooo+%-=============================================================================%+ooooooo.........       ",
"         . . . ...     o%-============================================================================-%o      ... . . .        ",
"               ...     o%-============================================================================-%o      ..               ",
"               ...     o%-============================================================================-%o      ..               ",
"               ...     o%-============================================================================-%o      ..               ",
"               ...     o%-============================================================================-%o      ..               ",
"               ...     o%------==================================================================------%o      ..               ",
"               ...     o#&&&&&&&*==============================================================*&&&&&&&#o      ..               ",
"                       .ooooooo@&==============================================================&@ooooooo.                       ",
"                       ... .   o%-============================================================-%o    . ...                      ",
"                       ...     o%-============================================================-%o      ..                       ",
"                       ...     o%-============================================================-%o      ..                       ",
"                       ...     o%-============================================================-%o      ..                       ",
"                       ...     o%-============================================================-%o      ..                       ",
"                       ...     o%---------------================================---------------%o      ..                       ",
"                       ...     o#%%%%%%%%%%%%%%%*==============================*%%%%%%%%%%%%%%%#o      ..                       ",
"                               .XXXXXXXXXXXXXXXO&=============================-&OXXXXXXXXXXXXXXX.                               ",
"                               ..              o&=============================-&o                                               ",
"                               ..              o&-============================-&o                                               ",
"                               ..              o%-============================-&o                                               ",
"                               ..              o&=============================-&o                                               ",
"                               ..              o&==============================&o                                               ",
"                               ..              o&------------------------------&o                                               ",
"                               ..              o#%%%%%%%%%%%%%%%%%%%%%%%%%%%%%%#o                                               ",
"                                .............  .oooooooooooooooooooooooooooooooo..  .........                                   ",
"                                                                                                                                ",
"                                                                                                                                ",
"                                                                                                                                ",
"                                                                                                                                ",
"                                                                                                                                ",
"                                                                                                                                ",
"                                                ................................                                                ",
"                                                ................................                                                ",
"                                                                                                                                ",
"                                                                                                                                ",
"                                                                                                                                "
};
