/* XPM */
static char *d830d94e86ea415e8e4d7a2b3d080facyhaukNiLM7Pka0tJ[] = {
/* columns rows colors chars-per-pixel */
"128 128 14 1 ",
"  c black",
". c gray2",
"X c #151108",
"o c #191408",
"O c #2D220A",
"+ c #31260B",
"@ c #33270D",
"# c #AA8B17",
"$ c #C29A14",
"% c #C99F13",
"& c #CFA315",
"* c #EAB611",
"= c #ECBA10",
"- c #EFBC10",
/* pixels */
"                                                                                                                                ",
"                                                                                                                                ",
"                                                                                                                                ",
"                                                ................................                                                ",
"                                                ................................                                                ",
"                                                                                                                                ",
"                                                                                                                                ",
"                                                                                                                                ",
"                                                                                                                                ",
"                                                                                                                                ",
"                                                                                                                                ",
"                                   .........  ..oooooooooooooooooooooooooooooooo.  .............                                ",
"                                               o#%%%%%%%%%%%%%%%%%%%%%%%%%%%%%%#o              ..                               ",
"                                               o&------------------------------&o              ..                               ",
"                                               o&==============================&o              ..                               ",
"                                               o&-=============================&o              ..                               ",
"                                               o&-============================-%o              ..                               ",
"                                               o&-============================-&o              ..                               ",
"                                               o&-=============================&o              ..                               ",
"                               .XXXXXXXXXXXXXXXO&-=============================&OXXXXXXXXXXXXXXX.                               ",
"                       ..      o#%%%%%%%%%%%%%%%*==============================*%%%%%%%%%%%%%%%#o     ...                       ",
"                       ..      o%---------------================================---------------%o     ...                       ",
"                       ..      o%-============================================================-%o     ...                       ",
"                       ..      o%-============================================================-%o     ...                       ",
"                       ..      o%-============================================================-%o     ...                       ",
"                       ..      o%-============================================================-%o     ...                       ",
"                      ... .    o%-============================================================-%o   . ...                       ",
"                       .ooooooo@&==============================================================&@ooooooo.                       ",
"               ..      o#&&&&&&&*==============================================================*&&&&&&&#o     ...               ",
"               ..      o%------==================================================================------%o     ...               ",
"               ..      o%-============================================================================-%o     ...               ",
"               ..      o%-============================================================================-%o     ...               ",
"               ..      o%-============================================================================-%o     ...               ",
"               ..      o%-============================================================================-%o     ...               ",
"        . . . ...      o%-============================================================================-%o     ... . . .         ",
"       .........ooooooo+%=============================================================================-%+oooooooX.......        ",
"       ........o#%%%%%%%*==============================================================================*%%%%%%%#o.......        ",
"         . . . X$-------=================================================================================------$X. . .          ",
"               X$-============================================================================================-$X               ",
"               X$-============================================================================================-$X               ",
"               X$-============================================================================================-$X               ",
"               X$-============================================================================================-$X               ",
"               X$-============================================================================================-$X               ",
"               X$-============================================================================================-$X               ",
"               X$-============================================================================================-$X               ",
"               X$-============================================================================================-$X               ",
"               X$-============================================================================================-$X               ",
"               X$-============================================================================================-$X               ",
"               X$-============================================================================================-$X               ",
"               X$-============================================================================================-$X               ",
"               X$-==============================================--------======================================-$X       .       ",
"    ....oooooooO$-=============================================*%$$$$$$%*=====================================-%Oooooooo.  .....",
"     . o#%%%%%%&*=============================================-%OXoooooO%======================================*%%%%%%%#o ...   ",
"       o&-------==============================================-$o      o%-======================================-------&o       ",
"       o&-====================================================-$o      o%-=============================================&o       ",
"       o&-====================================================-$o      o%-============================================-&o       ",
"       o&-====================================================-$o      o%-=============================================&o       ",
"       o&-====================================================-$o      o%-============================================-&o       ",
"       o&-====================================================-$o      o%-=============---=-=--========================&o       ",
"       o&-====================================================-$o      o%-=============*&%&&&&&&*=====================-&o       ",
"       o&-====================================================-$o      o%-============-%OooooooO%-=====================&o       ",
"       o&-====================================================-$o      o%-============-%X      X$-====================-&o       ",
"       o&-====================================================-$o      o%-============-%X      X$-=====================&o       ",
"       o&-====================================================-$o      o%-============-%X      X$-====================-&o       ",
"       o&-====================================================-$o      o%-============-%X      X$-=====================&o       ",
"       o&-====================================================-%o      o%-============-%X      o$-====================-&o       ",
"       o&-==============================================-------%o      o%-============-%X      X$-=====================&o       ",
"       o&-=============================================*%$$$$$$#X      o%-============-%OooooooO%-====================-&o       ",
"       o&-============================================-%OXXXXXXX.      o%-=============*&%&&%%%&*======================&o       ",
"       o&-============================================-$o              o%-==============--=----=======================-&o       ",
"       o&-=============================================%o              o%-=============================================&o       ",
"       o&-============================================-%o              o%-============================================-&o       ",
"       o&-=============================================%o              o%-=============================================&o       ",
"       o&-============================================-%o              o%-============================================-&o       ",
"       o&-======================================-------%o              o%-------=======================================&o       ",
"       o&-=====================================*%%%%%%%#o    ...       X#%%%%%%%*=====================================-&o       ",
"       o&-====================================-%Oooooooo.  ........    .oooooooO%-=====================================&o       ",
"       o&-====================================-$X      .                       X$-====================================-&o       ",
"       o&-====================================-$X      ..                      X$-=====================================&o       ",
"       o&-====================================-$X      ..                      X$-====================================-&o       ",
"       o&-====================================-$X      ..                     .X$-=====================================&o       ",
"       o&-====================================-$X      ..                      X$-====================================-&o       ",
"      .o&-=-----==============================-$X      ..                     .X$-==============================--=-=--&o   . . ",
".......o#%%%%%%%*=============================-$X      ..                      X$-=============================*%%%%%%%#o.......",
"........oooooooO$-============================-$X      ..                     .X$-============================-%Oooooooo........",
"               X$-============================-$X      ..                      X$-============================-$X               ",
"               X$-============================-$X      ..                     .X$-============================-$X               ",
"               X$-============================-$X      ..                      X$-============================-$X               ",
"               X$-============================-$X       .                     .X$-============================-$X               ",
"               X$-============================-$X       .                      X$-============================-$X               ",
"               X$-============================-$X       .                     .X$-============================-$X               ",
"               X$-============================-$X                              X$-============================-$X               ",
"               X$-============================-$X                             .X$-============================-$X               ",
"               X$-============================-$X       .                      X$-============================-$X               ",
"               X$-============================-$X       .                     .X$-============================-$X               ",
"               X$-============================-$X      ..                      X$-============================-$X               ",
"               X$-============================-$X      ..                     .X$-============================-$X               ",
"               X$-============================-$X      ..                      X$-============================-$X               ",
"               X$--=--=-================--=-=--%X      ..                     .X$-=-=--=================---==--$X               ",
"               X#&&&&&&&*===============&&&&&&&#X      .                       X#&&&&&&&*===============&&&&&&&#X               ",
"               .ooooooo+&-============-&@ooooooo.                              .ooooooo+&-=============&+ooooooo.               ",
"              ...      o%-============-%o                                              o%-============-%o      ..               ",
"               ..      o%-============-%o                                              o%-============-%o     ...               ",
"              ...      o%-============-%o                                              o%-============-%o     ...               ",
"               ..      o%-============-%o                                              o%-============-%o     ...               ",
"               ..      o%-============-%o                                              o%-============-%o     ...               ",
"               ..      o%-=-=---======-%o                                              o%-=======-=-=--%o     ...               ",
"               ..      o#%%%%%$&*=====-%o                                              o%-=====*&%%%%%%#o      ..               ",
"                       .oooooXXO%-====-%o                                              o%-=====&OXoXooXo.                       ",
"                       ..      o%-====-%o                                              o%-====-%o      ..                       ",
"                       ..      o%=====-%o                                              o%-====-%o      ..                       ",
"                       ..      o%-====-%o                                              o%-====-%o     ...                       ",
"                       ..      o%-====-%o                                              o%-====-%o     ...                       ",
"                       ..      o%-====-%o                                              o%-====-%o     ...                       ",
"                       ..      o%------&o                                              o&------%o     ...                       ",
"                       ..      o#%%%%%&#o.....                                  ....   o#&%%%%%#o ..  ...                       ",
"                         ..   ..oooooooo......                                  ........oooooooo...... .                        ",
"                                                                                               ..                               ",
"                                                                                               ..                               ",
"                                                                                               ..                               ",
"                                                                                               ..                               ",
"                                                                                               ..                               ",
"                                  . .                                                     . . . .                               ",
"                                ........                                                .........                               ",
"                                ........                                                ........                                ",
"                                                                                                                                ",
"                                                                                                                                ",
"                                                                                                                                "
};
